# xmcd CD database file
#
# Track frame offsets:
#	182
#	29175
#	61325
#	82125
#	113025
#	121400
#	155425
#	166350
#	213975
#	223575
#	281825
#	307825
#
# Disc length: 4463 seconds
#
# Revision: 0
# Processed by: cddbd v1.5.2PL0 Copyright (c) Steve Scherf et al.
# Submitted via: CDex 1.51
#
DISCID=af116d0c
DTITLE=Cavalanti, Danielle - Udu calls
DYEAR=1996
DGENRE=Jazz
TTITLE0=Opening peace
TTITLE1=Duo vamp - Ba lu Bolivar Luea are
TTITLE2=7/8 desert song
TTITLE3=Detah don't have no mercy
TTITLE4=Utar dance
TTITLE5=Climbin free - Fast clave
TTITLE6=Balafon seaks
TTITLE7=Three west african tales
TTITLE8=6/8 frames
TTITLE9=A tribute to THE TRIO
TTITLE10=I see you now, Jim
TTITLE11=Closing peace
EXTD=YEAR: 1996
EXTT0=
EXTT1=
EXTT2=
EXTT3=
EXTT4=
EXTT5=
EXTT6=
EXTT7=
EXTT8=
EXTT9=
EXTT10=
EXTT11=
PLAYORDER=
